<svg width="24" height="24" xmlns="http://www.w3.org/2000/svg">

 <g>
  <title>background</title>
  <rect fill="none" id="canvas_background" height="26" width="26" y="-1" x="-1"/>
 </g>
 <g>
  <title>Layer 1</title>
  <g id="svg_1">
   <path fill="#d1b264" id="svg_2" d="m3,15c-1.654,0 -3,-1.346 -3,-3s1.346,-3 3,-3s3,1.346 3,3s-1.346,3 -3,3zm0,-5c-1.103,0 -2,0.897 -2,2s0.897,2 2,2s2,-0.897 2,-2s-0.897,-2 -2,-2z"/>
  </g>
  <g id="svg_3">
   <path fill="#d1b264" id="svg_4" d="m12,15c-1.654,0 -3,-1.346 -3,-3s1.346,-3 3,-3s3,1.346 3,3s-1.346,3 -3,3zm0,-5c-1.103,0 -2,0.897 -2,2s0.897,2 2,2s2,-0.897 2,-2s-0.897,-2 -2,-2z"/>
  </g>
  <g id="svg_5">
   <path fill="#d1b264" id="svg_6" d="m21,15c-1.654,0 -3,-1.346 -3,-3s1.346,-3 3,-3s3,1.346 3,3s-1.346,3 -3,3zm0,-5c-1.103,0 -2,0.897 -2,2s0.897,2 2,2s2,-0.897 2,-2s-0.897,-2 -2,-2z"/>
  </g>
 </g>
</svg>