<?xml version="1.0" encoding="iso-8859-1"?>
<!-- Generator: Adobe Illustrator 19.0.0, SVG Export Plug-In . SVG Version: 6.00 Build 0)  -->
<svg version="1.1" id="Layer_1" xmlns="http://www.w3.org/2000/svg" xmlns:xlink="http://www.w3.org/1999/xlink" x="0px" y="0px"
	 viewBox="0 0 512.001 512.001" style="enable-background:new 0 0 512.001 512.001;" xml:space="preserve">
<g>
	<g>
		<path fill="#d1b264" d="M255.902,422.728c-16.437,0-29.81,13.268-29.81,29.577c0,16.309,13.373,29.578,29.81,29.578
			c16.437,0,29.811-13.269,29.811-29.578C285.713,435.996,272.34,422.728,255.902,422.728z M255.902,466.209
			c-7.795,0-14.136-6.238-14.136-13.904c0-7.666,6.341-13.903,14.136-13.903c7.796,0,14.137,6.237,14.137,13.903
			C270.04,459.971,263.697,466.209,255.902,466.209z"/>
	</g>
</g>
<g>
	<g>
		<path fill="#d1b264" d="M450.579,336.312c20.26,0,36.742-16.345,36.742-36.436c0-15.661-10.016-29.044-24.03-34.184
			c0.087-2.356,0.138-4.723,0.138-7.099c-0.001-19.773-2.836-39.326-8.426-58.118c-1.234-4.148-5.599-6.511-9.746-5.277
			c-4.148,1.234-6.511,5.598-5.277,9.746c5.159,17.34,7.774,35.391,7.775,53.649c0,1.664-0.042,3.32-0.086,4.974
			c-18.902,1.477-33.831,17.192-33.831,36.31c0,13.729,7.7,25.706,19.039,31.915c-1.892,4.456-3.949,8.827-6.167,13.105
			c-7.817,5.258-11.603,7.034-14.988,7.034c-3.071,0-7.046-1.325-14.661-4.887c-1.767-0.828-3.65-1.247-5.595-1.247
			c-3.847,0-7.477,1.673-9.957,4.587c-3.821,4.484-4.147,11.025-0.792,15.905c9.188,13.366,9.336,15.021,2.653,29.519
			c-0.802,1.742-1.181,3.597-1.181,5.438c-1.258,1.093-2.519,2.183-3.807,3.243c-6.563-6.054-15.351-9.768-25-9.768
			c-20.26,0-36.742,16.344-36.742,36.435c0,2.449,0.249,4.842,0.716,7.157c-0.891,0.3-1.786,0.591-2.683,0.879
			c-6.05-26.626-30.095-46.582-58.77-46.582c-28.67,0-52.711,19.949-58.766,46.568c-1.304-0.415-2.601-0.843-3.892-1.284
			c0.414-2.185,0.639-4.435,0.639-6.738c0-20.09-16.481-36.435-36.741-36.435c-9.352,0-17.893,3.488-24.386,9.213
			c-1.547-1.284-3.078-2.588-4.584-3.919c0.397-2.497,0.086-5.11-1.021-7.509c-6.681-14.495-6.533-16.15,2.657-29.518
			c3.352-4.879,3.026-11.418-0.793-15.902c-2.484-2.915-6.113-4.587-9.958-4.587c-1.946,0-3.83,0.42-5.594,1.245
			c-7.617,3.563-11.592,4.887-14.664,4.887c-3.39,0-7.18-1.779-15.017-7.053c-0.172-0.116-0.351-0.22-0.528-0.328
			c-1.514-3.077-2.951-6.197-4.298-9.364c11.43-6.184,19.204-18.213,19.204-32.009c0-4.328-3.509-7.837-7.837-7.837
			s-7.837,3.509-7.837,7.837c0,11.448-9.451,20.762-21.068,20.762s-21.067-9.314-21.067-20.762c0-11.448,9.45-20.761,21.067-20.761
			c4.119,0,8.105,1.169,11.528,3.38c3.635,2.349,8.487,1.306,10.835-2.33c2.349-3.635,1.305-8.487-2.33-10.835
			c-5.207-3.364-11.149-5.342-17.328-5.789c-0.045-1.645-0.076-3.292-0.076-4.948c0-87.452,60.143-161.265,141.671-183.135
			c2.057,7.845,9.188,13.659,17.67,13.659h67.058c8.304,0,15.32-5.569,17.543-13.165c18.689,5.198,36.539,13.205,52.972,23.862
			c30.427,19.732,54.478,47.415,69.55,80.057c1.814,3.929,6.469,5.646,10.4,3.83c3.93-1.814,5.643-6.471,3.83-10.4
			c-16.315-35.333-42.337-65.293-75.253-86.638c-16.38-10.622-34.061-18.803-52.55-24.423c12.354-5.325,24.002-12.313,34.661-20.857
			c3.47,2.195,7.568,3.486,11.971,3.486c12.385,0,22.46-10.064,22.46-22.435S375.961,0,363.576,0s-22.46,10.064-22.46,22.435
			c0,2.248,0.342,4.417,0.96,6.466c-10.959,8.805-22.972,15.671-35.583,20.582c-3.11-5.67-9.133-9.523-16.043-9.523h-67.058
			c-6.909,0-12.934,3.854-16.043,9.523c-12.611-4.911-24.624-11.777-35.583-20.582c0.619-2.049,0.96-4.217,0.96-6.466
			C172.727,10.064,162.651,0,150.266,0s-22.46,10.064-22.46,22.435s10.076,22.435,22.46,22.435c4.403,0,8.502-1.29,11.972-3.486
			c10.433,8.363,21.815,15.23,33.878,20.511C110.74,87.363,48.377,165.899,48.377,258.593c0,2.402,0.047,4.795,0.131,7.177
			c-13.907,5.195-23.828,18.521-23.828,34.105c0,20.09,16.482,36.436,36.741,36.436c0.8,0,1.593-0.034,2.38-0.085
			c1.003,2.42,2.055,4.814,3.148,7.187c-3.713,3.863-4.763,9.674-2.499,14.591c6.681,14.494,6.533,16.149-2.655,29.516
			c-3.353,4.879-3.029,11.418,0.787,15.9c2.483,2.917,6.114,4.591,9.961,4.591c0,0,0,0,0.001,0c1.945,0,3.827-0.419,5.592-1.245
			c7.619-3.563,11.593-4.888,14.665-4.888c3.391,0,7.181,1.779,15.019,7.054c2.166,1.458,4.695,2.228,7.312,2.228
			c0.622,0,1.237-0.056,1.846-0.143c2.126,1.9,4.29,3.758,6.495,5.572c-1.972,4.464-3.074,9.389-3.074,14.567
			c0,20.09,16.482,36.435,36.742,36.435c12.303,0,23.204-6.033,29.875-15.266c2.873,1.002,5.775,1.943,8.705,2.822
			c1.503,31.601,27.919,56.853,60.179,56.853c11.513,0,22.708-3.23,32.374-9.341c3.658-2.312,4.749-7.153,2.437-10.812
			c-2.311-3.658-7.151-4.749-10.812-2.437c-7.156,4.524-15.455,6.916-23.999,6.916c-24.58,0-44.578-19.747-44.578-44.022
			c0-24.273,19.998-44.021,44.578-44.021c24.581,0,44.579,19.748,44.579,44.021c0,7.486-1.934,14.873-5.592,21.366
			c-2.125,3.77-0.791,8.55,2.98,10.675c3.77,2.126,8.549,0.791,10.675-2.98c4.512-8.007,7.09-17.01,7.535-26.201
			c2.584-0.777,5.146-1.604,7.687-2.477c6.694,9.03,17.474,14.906,29.617,14.906c20.26,0,36.742-16.345,36.742-36.436
			c0-4.877-0.978-9.528-2.739-13.782c1.405-1.144,2.78-2.322,4.155-3.501c1.241,0.379,2.537,0.588,3.852,0.588
			c2.616,0,5.144-0.769,7.314-2.228c7.837-5.274,11.626-7.053,15.016-7.053c3.071,0,7.046,1.325,14.665,4.889
			c1.766,0.825,3.648,1.244,5.591,1.244c3.847,0,7.477-1.673,9.961-4.59c3.817-4.483,4.142-11.022,0.789-15.901
			c-9.188-13.367-9.337-15.024-2.655-29.518c2.304-5.001,1.182-10.932-2.69-14.792c1.624-3.384,3.163-6.816,4.603-10.299
			C448.845,336.271,449.707,336.312,450.579,336.312z M363.576,15.673c3.743,0,6.787,3.033,6.787,6.762
			c0,3.728-3.045,6.762-6.787,6.762s-6.787-3.033-6.787-6.762C356.789,18.707,359.834,15.673,363.576,15.673z M264.758,55.632
			h25.693c1.416,0,2.612,1.196,2.612,2.612v12.587c0,1.416-1.196,2.612-2.612,2.612h-25.693V55.632z M220.78,58.245
			c0-1.416,1.196-2.612,2.612-2.612h25.692v17.811h-25.692c-1.416,0-2.612-1.196-2.612-2.612V58.245z M150.266,29.195
			c-3.743,0-6.787-3.033-6.787-6.762s3.044-6.76,6.787-6.76s6.788,3.033,6.788,6.762C157.054,26.163,154.009,29.195,150.266,29.195z
			 M109.746,391.6c-6.053-3.524-11.152-5.394-16.945-5.394c-4.307,0-8.531,1.045-13.437,2.945
			c6.397-10.982,6.988-18.342,2.493-30.238c6.054,3.524,11.152,5.394,16.943,5.394h0.002c4.309,0,8.533-1.045,13.438-2.945
			C105.843,372.341,105.252,379.701,109.746,391.6z M157.144,451.918c-11.617,0-21.068-9.313-21.068-20.761
			s9.451-20.761,21.068-20.761c11.617,0,21.067,9.313,21.067,20.761C178.211,442.604,168.76,451.918,157.144,451.918z
			 M353.382,451.918c-11.617,0-21.068-9.314-21.068-20.762s9.451-20.761,21.068-20.761s21.068,9.313,21.068,20.761
			S364.999,451.918,353.382,451.918z M417.721,389.505c-5.793,0-10.892,1.869-16.945,5.394c4.494-11.896,3.903-19.258-2.493-30.238
			c4.907,1.9,9.13,2.945,13.438,2.945c5.792,0,10.891-1.869,16.945-5.394c-4.494,11.897-3.903,19.258,2.495,30.239
			C426.256,390.55,422.032,389.505,417.721,389.505z M429.512,299.877c0-11.448,9.45-20.761,21.067-20.761
			s21.068,9.313,21.068,20.761s-9.451,20.762-21.068,20.762C438.962,320.639,429.512,311.325,429.512,299.877z"/>
	</g>
</g>
<g>
</g>
<g>
</g>
<g>
</g>
<g>
</g>
<g>
</g>
<g>
</g>
<g>
</g>
<g>
</g>
<g>
</g>
<g>
</g>
<g>
</g>
<g>
</g>
<g>
</g>
<g>
</g>
<g>
</g>
</svg>
