<svg height="512" viewBox="0 0 128 128" width="512" xmlns="http://www.w3.org/2000/svg"><g><path fill="#d8a247" d="m54.786 64a9.214 9.214 0 1 0 9.214-9.217 9.225 9.225 0 0 0 -9.214 9.217zm14.928 0a5.714 5.714 0 1 1 -5.714-5.717 5.721 5.721 0 0 1 5.714 5.717z"/><path fill="#d8a247" d="m111.472 26.073a13.318 13.318 0 1 0 -9.545-9.545l-16.4 16.4-5.6-5.6a1.805 1.805 0 0 0 -1.266-.525h-15.425c-22.728-16.917-42.645-22.573-50.823-14.393s-2.523 28.1 14.4 50.824v15.427a1.766 1.766 0 0 0 .512 1.254l5.61 5.609-16.4 16.4a13.318 13.318 0 1 0 9.546 9.545l16.4-16.4 5.593 5.594a1.762 1.762 0 0 0 1.253.526h15.44c15.812 11.769 30.262 18.094 40.345 18.093 4.41 0 7.987-1.209 10.475-3.7 8.179-8.178 2.523-28.095-14.4-50.824v-15.425a1.746 1.746 0 0 0 -.528-1.269l-5.591-5.591zm3.278-22.573a9.75 9.75 0 1 1 -9.75 9.75 9.761 9.761 0 0 1 9.75-9.75zm-11.368 16.522a13.338 13.338 0 0 0 4.6 4.6l-15.382 15.378-4.6-4.6zm-90.129 104.478a9.75 9.75 0 1 1 9.75-9.75 9.761 9.761 0 0 1 -9.75 9.75zm11.368-16.522a13.338 13.338 0 0 0 -4.6-4.6l15.384-15.378 4.595 4.6zm65.718-17.724 5.04-5.04c4.475 7.56 6.892 13.859 7.563 17.664-4.4-.713-10.738-3.411-17.682-7.544zm4.145-9.094-13.273 13.273-1.911 1.916-6.455-15.573 7.934-7.934 15.573 6.45zm-42.545 16.529 6.45-15.573h11.221l6.451 15.573zm-11.761-9.866-3.535-3.536-4.994-4.994 15.573-6.45 7.934 7.934-6.456 15.572zm-2.517-50.083-5.04 5.04c-4.475-7.56-6.893-13.859-7.563-17.664 4.4.713 10.738 3.411 17.682 7.544zm-4.146 9.095 13.27-13.271 1.915-1.919 6.451 15.574-7.934 7.934-15.569-6.453zm42.546-16.529-6.451 15.573h-11.221l-6.45-15.573zm2.557 27.636v12.111l-8.562 8.563h-12.112l-8.562-8.563v-12.111l8.562-8.563h12.112zm-48.309 4.717v-10.723l15.573 6.451v11.221l-15.573 6.45zm67.382 2.676v10.723l-15.573-6.45v-11.221l15.573-6.451zm-16.912-10.182-7.934-7.934 6.455-15.574 8.53 8.531 3.53 3.534 4.992 4.99zm-65.891-40.269c1.87-1.87 4.636-2.773 8.1-2.773 8.31 0 20.641 5.192 34.268 14.7h-7.919a1.8 1.8 0 0 0 -1.268.525l-2.781 2.782c-8.987-5.448-17.01-8.6-22.148-8.685a1.752 1.752 0 0 0 -1.778 1.75c0 3.793 2.314 11.556 8.711 22.15l-2.736 2.735a1.874 1.874 0 0 0 -.528 1.27v7.923c-13.468-19.318-18.275-36.024-11.921-42.377zm98.224 98.226c-6.351 6.354-23.058 1.547-42.371-11.921h7.937a1.847 1.847 0 0 0 1.253-.526l2.781-2.781c8.987 5.447 17.01 8.6 22.148 8.684h.028a1.751 1.751 0 0 0 1.75-1.75c0-3.793-2.314-11.556-8.711-22.15l2.752-2.751a1.891 1.891 0 0 0 .512-1.254v-7.923c13.468 19.313 18.275 36.019 11.921 42.372z"/></g></svg>