<?xml version="1.0" encoding="iso-8859-1"?>
<!-- Generator: Adobe Illustrator 19.0.0, SVG Export Plug-In . SVG Version: 6.00 Build 0)  -->
<svg version="1.1" id="Capa_1" xmlns="http://www.w3.org/2000/svg" xmlns:xlink="http://www.w3.org/1999/xlink" x="0px" y="0px"
	 viewBox="0 0 469.337 469.337" style="enable-background:new 0 0 469.337 469.337;" xml:space="preserve">
<g>
	<g>
		<path fill="#d1b264" d="M468.208,379.114c-0.523-1.049-1.194-1.966-1.979-2.754L305.333,214.538l7.563-7.575c4.167-4.172,4.167-10.931,0-15.103
			L177.135,55.924c-4.167-4.172-10.917-4.172-15.083,0l-7.543,7.553l-45.259-45.31c-24.167-24.219-66.333-24.219-90.5,0
			C6.656,30.265,0,46.359,0,63.475s6.656,33.21,18.75,45.309l45.251,45.318l-7.543,7.553c-4.167,4.172-4.167,10.931,0,15.103
			l135.76,135.937c2.083,2.086,4.813,3.129,7.542,3.129s5.458-1.043,7.542-3.129l7.565-7.572l161.612,161.105
			c0.786,0.785,1.702,1.458,2.75,1.982c1.531,0.761,3.156,1.126,4.76,1.126c3.917,0,7.677-2.159,9.552-5.904l10.667-21.361
			c1.656-3.306,1.479-7.239-0.469-10.388c-1.948-3.15-5.375-5.069-9.073-5.069H384v-10.681c0-5.904-4.771-10.681-10.667-10.681
			h-10.667v-10.681c0-5.904-4.771-10.681-10.667-10.681h-27.883l-94.164-93.869l7.526-7.533c2-2.003,3.125-4.714,3.125-7.551
			s-1.125-5.549-3.125-7.551L101.708,131.449c-4.167-4.172-10.917-4.172-15.083,0l-7.54,7.55L33.833,93.681
			c-8.063-8.073-12.5-18.795-12.5-30.206s4.438-22.133,12.5-30.206c16.125-16.146,44.208-16.146,60.333,0l45.259,45.31l-7.54,7.55
			c-4.167,4.172-4.167,10.931,0,15.103l135.76,135.947c2,2.003,4.708,3.129,7.542,3.129c2.833,0,5.542-1.126,7.542-3.129
			l7.523-7.536L384,323.93v27.919c0,5.904,4.771,10.681,10.667,10.681h10.667v10.681c0,5.904,4.771,10.681,10.667,10.681h10.667
			v10.681c0,3.703,1.917,7.134,5.063,9.085c1.708,1.064,3.656,1.596,5.604,1.596c1.635,0,3.26-0.375,4.771-1.126l21.333-10.681
			C468.708,390.806,470.844,384.392,468.208,379.114z M94.167,154.512L214.854,275.19l-15.094,15.083L79.083,169.596L94.167,154.512
			z M275.187,214.856L154.51,94.169l15.083-15.083l120.677,120.677L275.187,214.856z"/>
	</g>
</g>
<g>
</g>
<g>
</g>
<g>
</g>
<g>
</g>
<g>
</g>
<g>
</g>
<g>
</g>
<g>
</g>
<g>
</g>
<g>
</g>
<g>
</g>
<g>
</g>
<g>
</g>
<g>
</g>
<g>
</g>
</svg>
