<svg id="Capa_1" enable-background="new 0 0 511.883 511.883" height="512" viewBox="0 0 511.883 511.883" width="512" xmlns="http://www.w3.org/2000/svg"><g><path fill="#d8a247"  d="m85.804 205.174 19.608 13.481v22.228c0 8.284 6.716 15 15 15h60.235c8.284 0 15-6.716 15-15v-97.941h128.117v30.176c0 8.284 6.716 15 15 15s15-6.716 15-15v-30.176h25.28c6.198 17.525 22.924 30.118 42.544 30.118 24.878 0 45.117-20.24 45.117-45.118s-20.239-45.118-45.117-45.118c-19.62 0-36.347 12.593-42.544 30.118h-25.28v-30.177c0-8.284-6.716-15-15-15s-15 6.716-15 15v30.176h-128.117v-97.941c0-8.284-6.716-15-15-15h-60.235c-8.284 0-15 6.716-15 15v22.227l-19.608 13.481c-54.133 37.216-54.111 117.266 0 154.466zm335.785-92.35c8.336 0 15.117 6.782 15.117 15.118s-6.781 15.118-15.117 15.118-15.118-6.782-15.118-15.118 6.782-15.118 15.118-15.118zm-286.177-82.824h30.235v195.883h-30.235c0-6.974 0-174.098 0-195.883zm-30 43.633v108.617c-39.677-27.277-41.171-80.313 0-108.617z"/><path fill="#d8a247"  d="m426.079 306.708-19.608-13.481v-22.227c0-8.284-6.716-15-15-15h-60.235c-8.284 0-15 6.716-15 15v97.941h-128.118v-30.176c0-8.284-6.716-15-15-15s-15 6.716-15 15v30.176h-25.279c-6.197-17.525-22.924-30.118-42.544-30.118-24.878 0-45.118 20.24-45.118 45.118s20.24 45.118 45.118 45.118c19.62 0 36.347-12.593 42.544-30.118h25.279v30.176c0 8.284 6.716 15 15 15s15-6.716 15-15v-30.176h128.118v97.941c0 8.284 6.716 15 15 15h60.235c8.284 0 15-6.716 15-15v-22.227l19.608-13.481c54.133-37.216 54.111-117.265 0-154.466zm-335.785 92.351c-8.336 0-15.118-6.782-15.118-15.118s6.782-15.118 15.118-15.118 15.118 6.782 15.118 15.118-6.782 15.118-15.118 15.118zm286.177 82.824h-30.235v-195.883h30.235zm30-43.633v-108.617c39.677 27.277 41.171 80.312 0 108.617z"/></g></svg>