<svg id="Icons" height="512" viewBox="0 0 74 74" width="512" xmlns="http://www.w3.org/2000/svg"><path fill="#d8a247"  d="m55.6 72a10.642 10.642 0 0 1 -10.626-10.629c0-5.52 9.362-21.987 9.761-22.686a1.04 1.04 0 0 1 1.737 0c.4.7 9.761 17.166 9.761 22.686a10.642 10.642 0 0 1 -10.633 10.629zm0-30.775c-3.027 5.482-8.629 16.4-8.629 20.146a8.629 8.629 0 0 0 17.259 0c.003-3.747-5.599-14.664-8.63-20.146z"/><path fill="#d8a247"  d="m55.6 66.98a5.944 5.944 0 0 1 -5.938-5.938c0-2.415 3.529-9.611 5.046-12.593a1.041 1.041 0 0 1 1.782 0c1.518 2.982 5.047 10.18 5.047 12.593a5.944 5.944 0 0 1 -5.937 5.938zm0-15.844c-2.711 5.508-3.937 8.916-3.937 9.906a3.938 3.938 0 0 0 7.876 0c.003-.989-1.224-4.396-3.939-9.905z"/><path fill="#d8a247"  d="m55.6 40.181a4.921 4.921 0 1 1 4.921-4.921 4.926 4.926 0 0 1 -4.921 4.921zm0-7.842a2.921 2.921 0 1 0 2.921 2.921 2.925 2.925 0 0 0 -2.921-2.921z"/><path fill="#d8a247"  d="m37.82 33.405a1 1 0 0 1 -.454-1.892 10.573 10.573 0 0 0 5.811-9.47v-2.008a6.694 6.694 0 0 1 6.47-6.708 6.551 6.551 0 0 1 4.774 1.873 7.147 7.147 0 0 1 2.179 5.11v11.029a1 1 0 0 1 -2 0v-11.029a5.138 5.138 0 0 0 -1.571-3.673 4.5 4.5 0 0 0 -3.314-1.312 4.693 4.693 0 0 0 -4.541 4.709v2.009a12.564 12.564 0 0 1 -6.902 11.257.993.993 0 0 1 -.452.105z"/><path fill="#d8a247"  d="m26.551 60.678a10.642 10.642 0 0 1 -10.629-10.63c0-5.52 9.362-21.987 9.761-22.686a1.04 1.04 0 0 1 1.737 0c.4.7 9.761 17.166 9.761 22.686a10.642 10.642 0 0 1 -10.63 10.63zm0-30.775c-3.027 5.482-8.629 16.4-8.629 20.146a8.629 8.629 0 1 0 17.259 0c0-3.749-5.602-14.664-8.63-20.149z"/><path fill="#d8a247"  d="m26.551 55.658a5.944 5.944 0 0 1 -5.938-5.937c0-2.414 3.529-9.611 5.046-12.593a1.041 1.041 0 0 1 1.782 0c1.518 2.983 5.047 10.181 5.047 12.593a5.944 5.944 0 0 1 -5.937 5.937zm0-15.844c-2.711 5.508-3.937 8.916-3.937 9.906a3.938 3.938 0 0 0 7.876 0c-.001-.989-1.227-4.396-3.939-9.906z"/><path fill="#d8a247"  d="m26.551 28.858a4.921 4.921 0 1 1 4.921-4.921 4.926 4.926 0 0 1 -4.921 4.921zm0-7.841a2.921 2.921 0 1 0 2.921 2.92 2.924 2.924 0 0 0 -2.921-2.92z"/><path fill="#d8a247"  d="m8.768 22.083a1 1 0 0 1 -.454-1.892 10.573 10.573 0 0 0 5.811-9.47v-2.008a6.695 6.695 0 0 1 6.475-6.713 6.522 6.522 0 0 1 4.774 1.872 7.147 7.147 0 0 1 2.182 5.113v11.032a1 1 0 0 1 -2 0v-11.029a5.136 5.136 0 0 0 -1.576-3.673 4.518 4.518 0 0 0 -3.313-1.315 4.694 4.694 0 0 0 -4.541 4.71v2.009a12.564 12.564 0 0 1 -6.906 11.256.993.993 0 0 1 -.452.108z"/></svg>