<?xml version="1.0" encoding="iso-8859-1"?>
<!-- Generator: Adobe Illustrator 19.0.0, SVG Export Plug-In . SVG Version: 6.00 Build 0)  -->
<svg version="1.1" id="Capa_1" xmlns="http://www.w3.org/2000/svg" xmlns:xlink="http://www.w3.org/1999/xlink" x="0px" y="0px"
	 viewBox="0 0 512 512" style="enable-background:new 0 0 512 512;" xml:space="preserve">
<g>
	<g>
		<path fill="#d1b264"  d="M308.783,253.424c-4.531-3.237-10.832-2.189-14.071,2.344c-3.239,4.533-2.19,10.833,2.344,14.071
			c18.019,12.874,28.778,33.761,28.778,55.873c0,5.571,4.516,10.087,10.087,10.087s10.087-4.516,10.087-10.087
			C346.008,297.1,332.092,270.077,308.783,253.424z"/>
	</g>
</g>
<g>
	<g>
		<path fill="#d1b264"  d="M506.716,15.148c-4.886-2.652-11.004-0.837-13.67,4.042c-0.142,0.26-14.667,26.373-50.742,52.108
			c-27.377,19.53-72.182,42.127-138.549,49.599c-7.855-17.919-25.751-30.474-46.532-30.474c-20.883,0-38.857,12.67-46.655,30.724
			c-67.643-7.2-113.176-30.091-140.871-49.849C33.622,45.564,19.097,19.452,18.97,19.217c-2.643-4.903-8.758-6.737-13.665-4.096
			C0.4,17.763-1.433,23.881,1.208,28.785c0.648,1.202,16.306,29.751,55.695,58.164c22.892,16.513,49.201,29.657,78.196,39.066
			c22.237,7.216,46.104,12.228,71.33,15.011c0,0.066-0.005,0.129-0.005,0.195c0,6.506,1.204,12.804,3.538,18.687
			c-41.206,11.755-77.039,38.791-99.707,75.68c-16.622,27.045-25.409,58.21-25.409,90.123c0,31.914,8.787,63.078,25.409,90.122
			c15.147,24.653,36.423,45.269,61.528,59.623c25.897,14.806,55.441,22.631,85.439,22.631c95.043,0,172.366-77.328,172.366-172.376
			c0-77.326-51.849-144.965-125.116-165.805c2.333-5.882,3.538-12.18,3.538-18.685c0-0.161-0.011-0.32-0.012-0.48
			c24.329-2.832,47.383-7.742,68.903-14.726c28.995-9.409,55.304-22.553,78.196-39.066c39.39-28.413,55.048-56.963,55.695-58.164
			C513.43,23.891,511.603,17.799,506.716,15.148z M257.223,110.598c9.957,0,18.815,4.781,24.409,12.167
			c-7.867,0.444-15.997,0.685-24.409,0.685h-2.444c-7.584,0-14.923-0.208-22.063-0.571
			C238.307,115.428,247.211,110.598,257.223,110.598z M254.777,143.624h2.444c10.377,0,20.57-0.349,30.573-1.024
			c-0.198,4.543-1.37,8.9-3.465,12.864c-1.908-0.302-3.811-0.572-5.691-0.803c-0.017-0.002-0.035-0.004-0.052-0.006
			c-0.005-0.001-0.01-0.002-0.015-0.002c-0.202-0.025-0.407-0.047-0.611-0.072c-0.485-0.06-0.969-0.12-1.461-0.172
			c-0.715-0.086-1.421-0.162-2.136-0.228c-0.742-0.078-1.484-0.145-2.175-0.197c-0.024-0.002-0.047-0.003-0.072-0.006
			c-0.661-0.059-1.321-0.11-1.989-0.159c-0.047-0.004-0.096-0.006-0.144-0.009c-0.002,0-0.003,0-0.005,0h-0.001
			c-8.376-0.625-17.114-0.625-25.516,0c-0.001,0-0.003,0-0.004,0c-0.005,0-0.01,0.001-0.015,0.001
			c-0.043,0.003-0.088,0.005-0.131,0.009c-0.729,0.054-1.446,0.109-2.165,0.174l-1.99,0.181c-0.001,0-0.003,0-0.004,0
			c-0.001,0-0.002,0-0.003,0c-0.007,0.001-0.014,0.002-0.021,0.002c-0.044,0.004-0.089,0.008-0.134,0.013l-1.51,0.161
			c-0.184,0.021-0.37,0.036-0.553,0.058c-0.619,0.066-1.23,0.137-1.841,0.217c-0.082,0.01-0.159,0.018-0.242,0.028
			c-0.002,0-0.005,0.001-0.007,0.001c-0.014,0.002-0.028,0.003-0.042,0.005c-1.881,0.231-3.783,0.501-5.692,0.803
			c-2.074-3.921-3.245-8.225-3.463-12.714C235.864,143.321,245.24,143.624,254.777,143.624z M105.02,325.712
			c0-24.514,5.874-48.518,17.056-70.062l17.195,12.444c-8.726,17.86-13.311,37.597-13.311,57.618s4.585,39.758,13.311,57.619
			l-17.195,12.444C110.894,374.232,105.02,350.227,105.02,325.712z M409.415,325.713c0,83.924-68.274,152.202-152.192,152.202
			c-50.189,0-96.118-24.07-124.647-64.836l16.991-12.296c24.41,34.9,64.701,56.181,107.655,56.181
			c72.373,0,131.252-58.88,131.252-131.252s-58.88-131.252-131.252-131.252c-42.954,0-83.245,21.281-107.655,56.181l-16.98-12.289
			c22.397-31.876,56.375-54.222,94.561-61.872c0.063-0.011,0.126-0.015,0.19-0.028c3.621-0.72,7.326-1.319,11.006-1.779
			c0.595-0.074,1.191-0.147,1.803-0.212l3.83-0.378c0.612-0.055,1.226-0.102,1.848-0.148c0.001,0,0.002,0,0.003,0
			c7.493-0.566,15.311-0.565,22.786,0c0.622,0.046,1.235,0.093,1.848,0.148c0.051,0.004,0.104,0.009,0.155,0.013
			c0.565,0.042,1.13,0.094,1.688,0.153l1.978,0.211c0.604,0.065,1.217,0.139,1.805,0.212c3.663,0.458,7.37,1.057,11.017,1.781
			c0.053,0.01,0.108,0.012,0.161,0.021C358.053,190.648,409.415,253.384,409.415,325.713z M146.136,325.712
			c0-19.542,5.148-38.762,14.888-55.582c0.004-0.007,0.009-0.014,0.013-0.021c19.831-34.218,56.686-55.474,96.186-55.474
			c61.248,0,111.078,49.829,111.078,111.078S318.472,436.79,257.224,436.79c-39.502,0.001-76.355-21.255-96.186-55.472
			c-0.004-0.008-0.009-0.015-0.013-0.023C151.284,364.474,146.136,345.254,146.136,325.712z"/>
	</g>
</g>
<g>
	<g>
		<path fill="#d1b264"  d="M271.681,237.845c-12.981,0-13.003,20.174,0,20.174C284.662,258.019,284.683,237.845,271.681,237.845z"/>
	</g>
</g>
</svg>
