<svg id="Capa_1" enable-background="new 0 0 512 512" height="512" viewBox="0 0 512 512" width="512" xmlns="http://www.w3.org/2000/svg"><g><path fill="#d1b264"  d="m61 437c0 41.355 33.645 75 75 75s75-33.645 75-75c0-43.132-36.6-77.87-80.317-74.791-26.269-30.536-40.683-68.398-40.683-107.209 0-90.981 74.467-165 166-165s166 74.019 166 165c0 38.812-14.414 76.673-40.683 107.209-43.717-3.079-80.317 31.659-80.317 74.791 0 41.355 33.645 75 75 75s75-33.645 75-75c0-5.394-.585-10.652-1.672-15.726 40.465-46.893 62.672-105.638 62.672-166.274 0-140.608-114.841-255-256-255s-256 114.392-256 255c0 60.636 22.207 119.381 62.672 166.274-1.087 5.074-1.672 10.332-1.672 15.726zm120 0c0 24.813-20.187 45-45 45s-45-20.187-45-45 20.187-45 45-45 45 20.187 45 45zm195 45c-24.813 0-45-20.187-45-45s20.187-45 45-45 45 20.187 45 45-20.187 45-45 45zm-346-227c0-124.065 101.383-225 226-225s226 100.935 226 225c0 48.953-16.483 96.568-46.762 136.083-6.203-7.984-13.973-14.686-22.855-19.636 25.663-34.047 39.617-74.735 39.617-116.447 0-108.931-89.7-195-196-195-108.006 0-196 87.7-196 195 0 41.711 13.954 82.4 39.617 116.447-8.882 4.949-16.653 11.652-22.855 19.636-30.279-39.515-46.762-87.13-46.762-136.083z"/></g></svg>