<svg id="Layer_1" height="512" viewBox="0 0 512 512" width="512" xmlns="http://www.w3.org/2000/svg" data-name="Layer 1"><path fill="#d8a247"  d="m93.987 381.25a36.424 36.424 0 1 0 36.423 36.424 36.465 36.465 0 0 0 -36.423-36.424zm0 60.847a24.424 24.424 0 1 1 24.423-24.423 24.451 24.451 0 0 1 -24.423 24.426z"/><path fill="#d8a247"  d="m451.612 57.6c-39.539-37.486-102.412-36.6-140.2 2.014l-39.264 40.922a6 6 0 0 0 .087 8.4l6.583 6.582-203.73 224.871a67.745 67.745 0 0 0 -13.216 21.585 64.3 64.3 0 1 0 87.815 87.815 67.759 67.759 0 0 0 21.585-13.216l224.877-203.733 7.412 7.411a5.991 5.991 0 0 0 4.239 1.749h.057a5.932 5.932 0 0 0 4.266-1.831l42.735-44.388a95.452 95.452 0 0 0 27.461-69.04 97.2 97.2 0 0 0 -30.707-69.141zm-367.631 290.846 203.332-224.435 5.565 5.565-202.778 223.9a63.929 63.929 0 0 0 -11.37 1.715 56.718 56.718 0 0 1 5.251-6.745zm10.006 121.554a52.326 52.326 0 1 1 52.326-52.326 52.385 52.385 0 0 1 -52.326 52.326zm11.475-115.607 195.912-216.321 14.513 14.513a6 6 0 0 0 8.486 0l31.975-31.975a24.568 24.568 0 0 1 34.8 34.69l-32.028 32.034a6 6 0 0 0 0 8.485l14.47 14.467-216.322 195.914a64.475 64.475 0 0 0 -51.806-51.807zm57.753 73.287a56.789 56.789 0 0 1 -6.744 5.248 64.125 64.125 0 0 0 1.715-11.37l223.9-202.777 5.566 5.565zm283.035-240.253-38.528 40.022-35.874-35.873 27.789-27.8.01-.011a36.567 36.567 0 0 0 -51.784-51.644l-27.733 27.736-35.254-35.257 35.154-36.635c33.19-33.917 88.514-34.665 123.326-1.665a85.286 85.286 0 0 1 26.968 60.663 83.573 83.573 0 0 1 -24.074 60.464z"/><path fill="#d8a247"  d="m331.646 73.423c-1.035.944-2.058 1.931-3.04 2.935a6 6 0 0 0 8.578 8.392c.822-.841 1.68-1.668 2.547-2.458a6 6 0 1 0 -8.085-8.869z"/><path fill="#d8a247"  d="m432.568 72.716a76.258 76.258 0 0 0 -83.741-11 6 6 0 1 0 5.293 10.77c22.857-11.234 51.224-7.5 70.586 9.292a6 6 0 0 0 7.862-9.066z"/></svg>