<svg xmlns="http://www.w3.org/2000/svg" enable-background="new 0 0 512.002 512.002" height="512.002" width="512.002"><rect id="backgroundrect" width="100%" height="100%" x="0" y="0" fill="none" stroke="none"/><g class="currentLayer" style=""><title>Layer 1</title><path d="m511.909 488.834-37.018-331c-.85-7.592-7.268-13.333-14.907-13.333h-92.483v-26.5c0-61.481-50.019-111.5-111.5-111.5s-111.5 50.019-111.5 111.5v26.5h-92.531c-7.64 0-14.06 5.742-14.907 13.335l-36.97 331c-.474 4.242.882 8.484 3.728 11.666s6.911 5 11.18 5h482.002c4.269 0 8.335-1.818 11.181-5s4.2-7.426 3.725-11.668zm-337.408-370.833c0-44.939 36.561-81.5 81.5-81.5s81.5 36.561 81.5 81.5v26.5h-163zm-142.732 357.5 33.619-301h79.113v32.581c-17.459 6.192-30 22.865-30 42.419 0 24.813 20.187 45 45 45s45-20.187 45-45c0-19.555-12.541-36.227-30-42.419v-32.581h163v32.581c-17.459 6.192-30 22.865-30 42.419 0 24.813 20.187 45 45 45s45-20.187 45-45c0-19.555-12.541-36.227-30-42.419v-32.581h79.067l33.663 301zm127.732-240.999c8.271 0 15 6.729 15 15s-6.729 15-15 15-15-6.729-15-15 6.728-15 15-15zm193 0c8.271 0 15 6.729 15 15s-6.729 15-15 15-15-6.729-15-15 6.728-15 15-15z" id="svg_1" class="" fill="#ffffff" fill-opacity="1"/><path fill="#ffffff" fill-opacity="1" stroke="none" stroke-opacity="1" stroke-width="1" stroke-dasharray="none" stroke-linejoin="miter" stroke-linecap="butt" stroke-dashoffset="" fill-rule="nonzero" opacity="1" marker-start="" marker-mid="" marker-end="" d="M229.71038055419922,288.0655746459961 C229.71038055419922,277.01585088909 238.66065679729314,268.0655746459961 249.71038055419922,268.0655746459961 C260.7601043111053,268.0655746459961 269.7103805541992,277.01585088909 269.7103805541992,288.0655746459961 C269.7103805541992,299.11529840290217 260.7601043111053,308.0655746459961 249.71038055419922,308.0655746459961 C238.66065679729314,308.0655746459961 229.71038055419922,299.11529840290217 229.71038055419922,288.0655746459961 z" id="svg_2" class="" transform="translate(-90.16393280029297,-39.344261169433594) "/><path fill="#ffffff" fill-opacity="1" stroke="none" stroke-opacity="1" stroke-width="1" stroke-dasharray="none" stroke-linejoin="miter" stroke-linecap="butt" stroke-dashoffset="" fill-rule="nonzero" opacity="1" marker-start="" marker-mid="" marker-end="" d="M423.15299224853516,288.61202269792557 C423.15299224853516,277.5622989410195 432.1032684916291,268.61202269792557 443.15299224853516,268.61202269792557 C454.20271600544123,268.61202269792557 463.15299224853516,277.5622989410195 463.15299224853516,288.61202269792557 C463.15299224853516,299.66174645483164 454.20271600544123,308.61202269792557 443.15299224853516,308.61202269792557 C432.1032684916291,308.61202269792557 423.15299224853516,299.66174645483164 423.15299224853516,288.61202269792557 z" class="" transform="translate(-90.16393280029297,-39.344261169433594) " id="svg_8"/></g></svg>