<svg id="Layer_1" height="512" viewBox="0 0 512 512" width="512" xmlns="http://www.w3.org/2000/svg" data-name="Layer 1"><path fill="#d1b264"  d="m224.712 40.685h62.84a6 6 0 0 0 0-12h-62.84a6 6 0 1 0 0 12z"/><path fill="#d1b264"  d="m217.72 73.214h76.823a6 6 0 0 0 0-12h-76.823a6 6 0 1 0 0 12z"/><path fill="#d1b264"  d="m299.537 93.743h-86.811a6 6 0 0 0 0 12h86.811a6 6 0 0 0 0-12z"/><path fill="#d1b264"  d="m287.552 474.088h-62.84a6 6 0 1 0 0 12h62.84a6 6 0 0 0 0-12z"/><path fill="#d1b264"  d="m294.543 441.559h-76.823a6 6 0 1 0 0 12h76.823a6 6 0 0 0 0-12z"/><path fill="#d1b264"  d="m206.726 415.029a6 6 0 0 0 6 6h86.811a6 6 0 1 0 0-12h-86.811a6 6 0 0 0 -6 6z"/><path fill="#d1b264"  d="m250.734 239.069a18.557 18.557 0 1 0 23.18 23.677h19.952a6 6 0 1 0 0-12h-19.952a18.618 18.618 0 0 0 -11.18-11.422v-37.171a6 6 0 1 0 -12 0zm5.653 11.111a6.566 6.566 0 1 1 -6.54 6.566 6.56 6.56 0 0 1 6.54-6.566z"/><path fill="#d1b264"  d="m242.122 193.89a6.052 6.052 0 0 0 1.2-.12c1.062-.215 2.149-.407 3.232-.569a6 6 0 1 0 -1.775-11.867c-1.284.191-2.575.419-3.837.674a6 6 0 0 0 1.183 11.882z"/><path fill="#d1b264"  d="m186.981 245.829a5.995 5.995 0 0 0 7.216-4.463 63.462 63.462 0 0 1 32.562-41.745 6 6 0 1 0 -5.535-10.646 75.439 75.439 0 0 0 -38.706 49.637 6 6 0 0 0 4.463 7.217z"/><path fill="#d1b264"  d="m256 368.372c61.8 0 112.07-50.377 112.07-112.3s-50.27-112.295-112.07-112.295-112.07 50.376-112.07 112.3 50.27 112.295 112.07 112.295zm-85.223-118.3h-14.663a100 100 0 0 1 25.048-60.5l10.329 10.352a6 6 0 0 0 8.495-8.477l-10.349-10.37a99.541 99.541 0 0 1 60.363-25.114v14.706a6 6 0 0 0 12 0v-14.706a99.541 99.541 0 0 1 60.363 25.112l-10.349 10.371a6 6 0 0 0 8.5 8.477l10.33-10.352a100 100 0 0 1 25.047 60.5h-14.669a6 6 0 0 0 0 12h14.664a100 100 0 0 1 -25.048 60.5l-10.33-10.352a6 6 0 0 0 -8.494 8.476l10.349 10.372a99.552 99.552 0 0 1 -60.363 25.12v-14.708a6 6 0 0 0 -12 0v14.707a99.541 99.541 0 0 1 -60.363-25.112l10.348-10.374a6 6 0 0 0 -8.5-8.476l-10.329 10.351a100 100 0 0 1 -25.047-60.5h14.663a6 6 0 0 0 0-12z"/><path fill="#d1b264"  d="m361.265 145.13a39.26 39.26 0 0 0 -34.482-38.945l-8.628-78.031a25.961 25.961 0 0 0 -25.817-23.154h-74.191a25.9 25.9 0 0 0 -25.847 23.49l-7.58 77.79a39.264 39.264 0 0 0 -33.743 38.85v23.17a136.731 136.731 0 0 0 -30.311 67.55 6 6 0 1 0 11.874 1.735c8.942-60.251 60.9-106.623 123.465-106.623 68.831 0 124.83 56.124 124.83 125.109s-56 125.111-124.83 125.111c-62.121 0-113.78-45.717-123.264-105.344a6.011 6.011 0 0 0 -5.925-5.1 6.008 6.008 0 0 0 -5.931 6.949 136.746 136.746 0 0 0 30.1 66.15v19.97a39.262 39.262 0 0 0 33.9 38.871l8.974 81.16a25.961 25.961 0 0 0 25.803 23.162h74.191a25.9 25.9 0 0 0 25.852-23.49l7.879-80.852a39.265 39.265 0 0 0 33.681-38.843v-20.244a137.05 137.05 0 0 0 0-174.993zm-179.958-3.878a137.772 137.772 0 0 0 -18.335 14.378v-10.5a27.26 27.26 0 0 1 20.53-26.4zm74.693-22.287a135.755 135.755 0 0 0 -61.913 14.863l10.151-104.174a13.942 13.942 0 0 1 13.909-12.654h74.191a13.976 13.976 0 0 1 13.89 12.473l11.529 104.274a135.759 135.759 0 0 0 -61.757-14.782zm93.265 36.885a137.745 137.745 0 0 0 -18.608-14.621l-2.5-22.644a27.262 27.262 0 0 1 21.111 26.545zm-186.293 207.965v-7.294a137.705 137.705 0 0 0 18.389 14.414l2.132 19.289a27.268 27.268 0 0 1 -20.521-26.409zm144.79 118.531a13.942 13.942 0 0 1 -13.909 12.654h-74.191a13.976 13.976 0 0 1 -13.89-12.473l-11.512-104.115a136.4 136.4 0 0 0 123.637-.079zm41.5-118.531a27.27 27.27 0 0 1 -20.469 26.4l1.881-19.305a137.832 137.832 0 0 0 18.591-14.61z"/></svg>