<?xml version="1.0" encoding="UTF-8"?>
<svg xmlns="http://www.w3.org/2000/svg" id="Outline" viewBox="0 0 512 512" width="512" height="512"><path fill="#d8a247" d="M248,240a24.039,24.039,0,0,0-16-22.624V163.314l2.343,2.343a8,8,0,0,0,11.314-11.314l-16-16a8,8,0,0,0-11.314,0l-16,16a8,8,0,0,0,11.314,11.314L216,163.314v54.062A24.119,24.119,0,0,0,201.376,232H107.314l2.343-2.343a8,8,0,0,0-11.314-11.314l-16,16a8,8,0,0,0,0,11.314l16,16a8,8,0,1,0,11.314-11.314L107.314,248h94.062A24,24,0,0,0,248,240Zm-24,8a8,8,0,1,1,8-8A8.009,8.009,0,0,1,224,248Z"/><path fill="#d8a247" d="M488,304H448v-8a23.854,23.854,0,0,0-4.073-13.359A225.684,225.684,0,0,0,448,240,224,224,0,0,0,65.608,81.608,224,224,0,0,0,224,464a225.8,225.8,0,0,0,40-3.582V472a8,8,0,0,0,8,8H496a8,8,0,0,0,8-8V416a8,8,0,0,0,8-8V328A24.027,24.027,0,0,0,488,304Zm8,24v72H464v-8a8,8,0,0,0-8-8H424a8,8,0,0,0-8,8v8H352v-8a8,8,0,0,0-8-8H312a8,8,0,0,0-8,8v8H272V328a8.009,8.009,0,0,1,8-8H488A8.009,8.009,0,0,1,496,328Zm-48,72v16H432V400Zm-112,0v16H320V400Zm-112,0a8,8,0,0,0-8,8v7.81a175.326,175.326,0,0,1-110.6-45.891l5.468-5.468a8,8,0,1,0-11.314-11.314l-5.468,5.468A175.326,175.326,0,0,1,48.19,248H56a8,8,0,0,0,0-16H48.19A175.326,175.326,0,0,1,94.081,121.4l5.468,5.468a8,8,0,0,0,11.314-11.314l-5.468-5.468A175.326,175.326,0,0,1,216,64.19V72a8,8,0,0,0,16,0V64.19a175.326,175.326,0,0,1,110.605,45.891l-5.468,5.468a8,8,0,0,0,11.314,11.314l5.468-5.468A175.326,175.326,0,0,1,399.81,232H392a8,8,0,0,0,0,16h7.806a177.045,177.045,0,0,1-2.72,24H344a24.028,24.028,0,0,0-24,24v8H280a24.027,24.027,0,0,0-24,24v80a7.949,7.949,0,0,0,1.592,4.774A176.668,176.668,0,0,1,232,415.8V408A8,8,0,0,0,224,400Zm112-96v-8a8.009,8.009,0,0,1,8-8h80a8.009,8.009,0,0,1,8,8v8ZM224,448C109.309,448,16,354.691,16,240S109.309,32,224,32s208,93.309,208,208a210.331,210.331,0,0,1-2.557,32.63A23.943,23.943,0,0,0,424,272H413.332A193.715,193.715,0,0,0,416,240c0-105.869-86.131-192-192-192S32,134.131,32,240s86.131,192,192,192a193.017,193.017,0,0,0,40-4.192v16.334A209.666,209.666,0,0,1,224,448Zm264,16H280V416h24v8a8,8,0,0,0,8,8h32a8,8,0,0,0,8-8v-8h64v8a8,8,0,0,0,8,8h32a8,8,0,0,0,8-8v-8h24Z"/></svg>
